<svg width="20" height="19" viewBox="0 0 20 19" fill="none" xmlns="http://www.w3.org/2000/svg">
<path d="M1.52083 0.979187L3.4275 1.30919L4.31025 11.8261C4.34416 12.24 4.53286 12.6258 4.83869 12.9067C5.14453 13.1875 5.54502 13.3427 5.96025 13.3414H15.9611C16.3587 13.3418 16.743 13.1987 17.0435 12.9383C17.344 12.6779 17.5403 12.3178 17.5964 11.9242L18.4672 5.91269C18.4905 5.75281 18.4819 5.58993 18.4422 5.43335C18.4024 5.27677 18.3321 5.12957 18.2354 5.00017C18.1387 4.87076 18.0174 4.76169 17.8785 4.67919C17.7396 4.59669 17.5858 4.54237 17.4259 4.51935C17.3672 4.51294 3.73367 4.50835 3.73367 4.50835" stroke="#272343" stroke-width="1.5" stroke-linecap="round" stroke-linejoin="round"/>
<path d="M11.9479 7.89545H14.4898" stroke="#272343" stroke-width="1.5" stroke-linecap="round" stroke-linejoin="round"/>
<path fill-rule="evenodd" clip-rule="evenodd" d="M5.55783 16.5194C5.62506 16.5166 5.69217 16.5273 5.75513 16.551C5.81809 16.5748 5.87559 16.611 5.92418 16.6576C5.97277 16.7041 6.01143 16.76 6.03785 16.8219C6.06426 16.8838 6.07788 16.9504 6.07788 17.0177C6.07788 17.0849 6.06426 17.1515 6.03785 17.2134C6.01143 17.2753 5.97277 17.3312 5.92418 17.3777C5.87559 17.4243 5.81809 17.4605 5.75513 17.4843C5.69217 17.508 5.62506 17.5187 5.55783 17.5159C5.4294 17.5104 5.30805 17.4555 5.21912 17.3626C5.13019 17.2698 5.08054 17.1462 5.08054 17.0177C5.08054 16.8891 5.13019 16.7655 5.21912 16.6727C5.30805 16.5799 5.4294 16.525 5.55783 16.5194Z" fill="#272343" stroke="#272343" stroke-width="1.5" stroke-linecap="round" stroke-linejoin="round"/>
<path fill-rule="evenodd" clip-rule="evenodd" d="M15.8987 16.5194C16.0312 16.5194 16.1583 16.572 16.252 16.6657C16.3457 16.7594 16.3983 16.8865 16.3983 17.019C16.3983 17.1515 16.3457 17.2786 16.252 17.3723C16.1583 17.4659 16.0312 17.5186 15.8987 17.5186C15.7662 17.5186 15.6392 17.4659 15.5455 17.3723C15.4518 17.2786 15.3992 17.1515 15.3992 17.019C15.3992 16.8865 15.4518 16.7594 15.5455 16.6657C15.6392 16.572 15.7662 16.5194 15.8987 16.5194Z" fill="#272343" stroke="#272343" stroke-width="1.5" stroke-linecap="round" stroke-linejoin="round"/>
</svg>
